<mxfile host="app.diagrams.net" modified="2020-11-30T15:10:16.890Z" agent="5.0 (Macintosh; Intel Mac OS X 10_15_7) AppleWebKit/605.1.15 (KHTML, like Gecko) Version/14.0.1 Safari/605.1.15" etag="Ap7TpwfokDtwowhIfpwa" version="13.10.4" type="github">
  <diagram name="Page-1" id="13e1069c-82ec-6db2-03f1-153e76fe0fe0">
    <mxGraphModel dx="2066" dy="842" grid="1" gridSize="10" guides="1" tooltips="1" connect="1" arrows="1" fold="1" page="1" pageScale="1" pageWidth="1100" pageHeight="850" background="#ffffff" math="0" shadow="0">
      <root>
        <mxCell id="0" />
        <mxCell id="1" parent="0" />
        <mxCell id="7baba1c4bc27f4b0-2" value="Система" style="shape=umlLifeline;perimeter=lifelinePerimeter;whiteSpace=wrap;html=1;container=1;collapsible=0;recursiveResize=0;outlineConnect=0;rounded=1;shadow=0;comic=0;labelBackgroundColor=none;strokeWidth=1;fontFamily=Verdana;fontSize=12;align=center;" parent="1" vertex="1">
          <mxGeometry x="290" y="80" width="100" height="360" as="geometry" />
        </mxCell>
        <mxCell id="7baba1c4bc27f4b0-10" value="" style="html=1;points=[];perimeter=orthogonalPerimeter;rounded=0;shadow=0;comic=0;labelBackgroundColor=none;strokeWidth=1;fontFamily=Verdana;fontSize=12;align=center;" parent="7baba1c4bc27f4b0-2" vertex="1">
          <mxGeometry x="45" y="140" width="10" height="190" as="geometry" />
        </mxCell>
        <mxCell id="7baba1c4bc27f4b0-3" value="Администратор" style="shape=umlLifeline;perimeter=lifelinePerimeter;whiteSpace=wrap;html=1;container=1;collapsible=0;recursiveResize=0;outlineConnect=0;rounded=1;shadow=0;comic=0;labelBackgroundColor=none;strokeWidth=1;fontFamily=Verdana;fontSize=12;align=center;" parent="1" vertex="1">
          <mxGeometry x="450" y="80" width="100" height="360" as="geometry" />
        </mxCell>
        <mxCell id="7baba1c4bc27f4b0-13" value="" style="html=1;points=[];perimeter=orthogonalPerimeter;rounded=0;shadow=0;comic=0;labelBackgroundColor=none;strokeWidth=1;fontFamily=Verdana;fontSize=12;align=center;" parent="7baba1c4bc27f4b0-3" vertex="1">
          <mxGeometry x="45" y="120" width="10" height="200" as="geometry" />
        </mxCell>
        <mxCell id="7baba1c4bc27f4b0-8" value="Клиент" style="shape=umlLifeline;perimeter=lifelinePerimeter;whiteSpace=wrap;html=1;container=1;collapsible=0;recursiveResize=0;outlineConnect=0;rounded=1;shadow=0;comic=0;labelBackgroundColor=none;strokeWidth=1;fontFamily=Verdana;fontSize=12;align=center;" parent="1" vertex="1">
          <mxGeometry x="100" y="80" width="100" height="360" as="geometry" />
        </mxCell>
        <mxCell id="7baba1c4bc27f4b0-9" value="" style="html=1;points=[];perimeter=orthogonalPerimeter;rounded=0;shadow=0;comic=0;labelBackgroundColor=none;strokeWidth=1;fontFamily=Verdana;fontSize=12;align=center;" parent="7baba1c4bc27f4b0-8" vertex="1">
          <mxGeometry x="40" y="100" width="10" height="220" as="geometry" />
        </mxCell>
        <mxCell id="EgSJl7PhiY8YRZptXEem-3" value="" style="edgeStyle=none;rounded=0;orthogonalLoop=1;jettySize=auto;html=1;entryX=0.2;entryY=0.05;entryDx=0;entryDy=0;entryPerimeter=0;" parent="1" source="7baba1c4bc27f4b0-9" target="7baba1c4bc27f4b0-13" edge="1">
          <mxGeometry relative="1" as="geometry" />
        </mxCell>
        <mxCell id="EgSJl7PhiY8YRZptXEem-5" value="&lt;span style=&quot;color: rgb(0 , 0 , 0) ; font-family: &amp;#34;verdana&amp;#34; ; font-size: 12px ; font-style: normal ; font-weight: normal ; letter-spacing: normal ; text-align: center ; text-indent: 0px ; text-transform: none ; word-spacing: 0px ; background-color: rgb(248 , 249 , 250) ; text-decoration: none ; display: inline ; float: none&quot;&gt;Заключение договора&lt;/span&gt;" style="text;whiteSpace=wrap;html=1;" parent="1" vertex="1">
          <mxGeometry x="290" y="180" width="80" height="30" as="geometry" />
        </mxCell>
        <mxCell id="EgSJl7PhiY8YRZptXEem-6" style="edgeStyle=none;rounded=0;orthogonalLoop=1;jettySize=auto;html=1;" parent="1" source="7baba1c4bc27f4b0-13" target="7baba1c4bc27f4b0-2" edge="1">
          <mxGeometry relative="1" as="geometry">
            <Array as="points">
              <mxPoint x="430" y="240" />
            </Array>
          </mxGeometry>
        </mxCell>
        <mxCell id="EgSJl7PhiY8YRZptXEem-7" value="&lt;span style=&quot;color: rgb(0 , 0 , 0) ; font-family: &amp;#34;verdana&amp;#34; ; font-size: 12px ; font-style: normal ; font-weight: normal ; letter-spacing: normal ; text-align: center ; text-indent: 0px ; text-transform: none ; word-spacing: 0px ; background-color: rgb(248 , 249 , 250) ; text-decoration: none ; display: inline ; float: none&quot;&gt;Заведение участка&lt;/span&gt;" style="text;whiteSpace=wrap;html=1;" parent="1" vertex="1">
          <mxGeometry x="375" y="210" width="80" height="30" as="geometry" />
        </mxCell>
        <mxCell id="EgSJl7PhiY8YRZptXEem-8" style="edgeStyle=none;rounded=0;orthogonalLoop=1;jettySize=auto;html=1;" parent="1" edge="1">
          <mxGeometry relative="1" as="geometry">
            <mxPoint x="495" y="270" as="sourcePoint" />
            <mxPoint x="339.5" y="270" as="targetPoint" />
          </mxGeometry>
        </mxCell>
        <mxCell id="EgSJl7PhiY8YRZptXEem-9" value="Заведение клиента" style="text;html=1;align=center;verticalAlign=middle;resizable=0;points=[];autosize=1;" parent="1" vertex="1">
          <mxGeometry x="350" y="250" width="130" height="20" as="geometry" />
        </mxCell>
        <mxCell id="EgSJl7PhiY8YRZptXEem-10" style="edgeStyle=none;rounded=0;orthogonalLoop=1;jettySize=auto;html=1;" parent="1" source="7baba1c4bc27f4b0-13" target="7baba1c4bc27f4b0-2" edge="1">
          <mxGeometry relative="1" as="geometry">
            <Array as="points">
              <mxPoint x="400" y="310" />
            </Array>
          </mxGeometry>
        </mxCell>
        <mxCell id="EgSJl7PhiY8YRZptXEem-11" value="Заведение договора" style="text;html=1;align=center;verticalAlign=middle;resizable=0;points=[];autosize=1;" parent="1" vertex="1">
          <mxGeometry x="350" y="290" width="130" height="20" as="geometry" />
        </mxCell>
        <mxCell id="EgSJl7PhiY8YRZptXEem-13" style="edgeStyle=none;rounded=0;orthogonalLoop=1;jettySize=auto;html=1;" parent="1" source="7baba1c4bc27f4b0-10" target="7baba1c4bc27f4b0-8" edge="1">
          <mxGeometry relative="1" as="geometry">
            <Array as="points">
              <mxPoint x="200" y="350" />
            </Array>
          </mxGeometry>
        </mxCell>
        <mxCell id="EgSJl7PhiY8YRZptXEem-14" value="Уведомление о реквизитах" style="text;html=1;align=center;verticalAlign=middle;resizable=0;points=[];autosize=1;" parent="1" vertex="1">
          <mxGeometry x="150" y="320" width="170" height="20" as="geometry" />
        </mxCell>
        <mxCell id="EgSJl7PhiY8YRZptXEem-18" value="Система" style="shape=umlLifeline;perimeter=lifelinePerimeter;whiteSpace=wrap;html=1;container=1;collapsible=0;recursiveResize=0;outlineConnect=0;rounded=1;shadow=0;comic=0;labelBackgroundColor=none;strokeWidth=1;fontFamily=Verdana;fontSize=12;align=center;" parent="1" vertex="1">
          <mxGeometry x="330" y="460" width="100" height="370" as="geometry" />
        </mxCell>
        <mxCell id="EgSJl7PhiY8YRZptXEem-19" value="" style="html=1;points=[];perimeter=orthogonalPerimeter;rounded=0;shadow=0;comic=0;labelBackgroundColor=none;strokeWidth=1;fontFamily=Verdana;fontSize=12;align=center;" parent="EgSJl7PhiY8YRZptXEem-18" vertex="1">
          <mxGeometry x="45" y="100" width="10" height="270" as="geometry" />
        </mxCell>
        <mxCell id="EgSJl7PhiY8YRZptXEem-22" value="Клиент" style="shape=umlLifeline;perimeter=lifelinePerimeter;whiteSpace=wrap;html=1;container=1;collapsible=0;recursiveResize=0;outlineConnect=0;rounded=1;shadow=0;comic=0;labelBackgroundColor=none;strokeWidth=1;fontFamily=Verdana;fontSize=12;align=center;" parent="1" vertex="1">
          <mxGeometry x="100" y="460" width="100" height="370" as="geometry" />
        </mxCell>
        <mxCell id="EgSJl7PhiY8YRZptXEem-23" value="" style="html=1;points=[];perimeter=orthogonalPerimeter;rounded=0;shadow=0;comic=0;labelBackgroundColor=none;strokeWidth=1;fontFamily=Verdana;fontSize=12;align=center;" parent="EgSJl7PhiY8YRZptXEem-22" vertex="1">
          <mxGeometry x="40" y="100" width="10" height="270" as="geometry" />
        </mxCell>
        <mxCell id="EgSJl7PhiY8YRZptXEem-34" value="Заключение договора" style="text;html=1;align=center;verticalAlign=middle;resizable=0;points=[];autosize=1;" parent="1" vertex="1">
          <mxGeometry x="270" y="40" width="140" height="20" as="geometry" />
        </mxCell>
        <mxCell id="EgSJl7PhiY8YRZptXEem-35" style="edgeStyle=none;rounded=0;orthogonalLoop=1;jettySize=auto;html=1;" parent="1" source="EgSJl7PhiY8YRZptXEem-23" target="EgSJl7PhiY8YRZptXEem-18" edge="1">
          <mxGeometry relative="1" as="geometry">
            <Array as="points">
              <mxPoint x="240" y="580" />
            </Array>
          </mxGeometry>
        </mxCell>
        <mxCell id="EgSJl7PhiY8YRZptXEem-36" value="Авторизация" style="text;html=1;align=center;verticalAlign=middle;resizable=0;points=[];autosize=1;" parent="1" vertex="1">
          <mxGeometry x="190" y="560" width="90" height="20" as="geometry" />
        </mxCell>
        <mxCell id="EgSJl7PhiY8YRZptXEem-38" style="edgeStyle=none;rounded=0;orthogonalLoop=1;jettySize=auto;html=1;" parent="1" source="EgSJl7PhiY8YRZptXEem-18" edge="1">
          <mxGeometry relative="1" as="geometry">
            <mxPoint x="335.5" y="615" as="sourcePoint" />
            <mxPoint x="150" y="615" as="targetPoint" />
          </mxGeometry>
        </mxCell>
        <mxCell id="EgSJl7PhiY8YRZptXEem-39" value="Переход в ЛК" style="text;html=1;align=center;verticalAlign=middle;resizable=0;points=[];autosize=1;" parent="1" vertex="1">
          <mxGeometry x="200.5" y="590" width="90" height="20" as="geometry" />
        </mxCell>
        <mxCell id="EgSJl7PhiY8YRZptXEem-40" style="edgeStyle=none;rounded=0;orthogonalLoop=1;jettySize=auto;html=1;" parent="1" source="EgSJl7PhiY8YRZptXEem-23" target="EgSJl7PhiY8YRZptXEem-18" edge="1">
          <mxGeometry relative="1" as="geometry" />
        </mxCell>
        <mxCell id="EgSJl7PhiY8YRZptXEem-41" value="Заведение платежных реквизитов" style="text;html=1;align=center;verticalAlign=middle;resizable=0;points=[];autosize=1;" parent="1" vertex="1">
          <mxGeometry x="160" y="640" width="210" height="20" as="geometry" />
        </mxCell>
        <mxCell id="EgSJl7PhiY8YRZptXEem-42" value="Платежная система" style="shape=umlLifeline;perimeter=lifelinePerimeter;whiteSpace=wrap;html=1;container=1;collapsible=0;recursiveResize=0;outlineConnect=0;rounded=1;shadow=0;comic=0;labelBackgroundColor=none;strokeWidth=1;fontFamily=Verdana;fontSize=12;align=center;" parent="1" vertex="1">
          <mxGeometry x="500" y="460" width="100" height="370" as="geometry" />
        </mxCell>
        <mxCell id="EgSJl7PhiY8YRZptXEem-43" value="" style="html=1;points=[];perimeter=orthogonalPerimeter;rounded=0;shadow=0;comic=0;labelBackgroundColor=none;strokeWidth=1;fontFamily=Verdana;fontSize=12;align=center;" parent="EgSJl7PhiY8YRZptXEem-42" vertex="1">
          <mxGeometry x="45" y="100" width="10" height="270" as="geometry" />
        </mxCell>
        <mxCell id="EgSJl7PhiY8YRZptXEem-47" style="edgeStyle=orthogonalEdgeStyle;curved=1;rounded=0;orthogonalLoop=1;jettySize=auto;html=1;" parent="EgSJl7PhiY8YRZptXEem-42" source="EgSJl7PhiY8YRZptXEem-43" edge="1">
          <mxGeometry relative="1" as="geometry">
            <mxPoint x="57" y="276" as="targetPoint" />
            <Array as="points">
              <mxPoint x="75" y="240" />
              <mxPoint x="75" y="276" />
            </Array>
          </mxGeometry>
        </mxCell>
        <mxCell id="EgSJl7PhiY8YRZptXEem-44" style="edgeStyle=none;rounded=0;orthogonalLoop=1;jettySize=auto;html=1;" parent="1" source="EgSJl7PhiY8YRZptXEem-19" target="EgSJl7PhiY8YRZptXEem-42" edge="1">
          <mxGeometry relative="1" as="geometry">
            <Array as="points">
              <mxPoint x="460" y="690" />
            </Array>
          </mxGeometry>
        </mxCell>
        <mxCell id="EgSJl7PhiY8YRZptXEem-45" value="Передача реквизитов" style="text;html=1;align=center;verticalAlign=middle;resizable=0;points=[];autosize=1;" parent="1" vertex="1">
          <mxGeometry x="400" y="670" width="140" height="20" as="geometry" />
        </mxCell>
        <mxCell id="EgSJl7PhiY8YRZptXEem-48" value="Осуществление платежа" style="text;html=1;align=center;verticalAlign=middle;resizable=0;points=[];autosize=1;" parent="1" vertex="1">
          <mxGeometry x="570" y="710" width="160" height="20" as="geometry" />
        </mxCell>
        <mxCell id="EgSJl7PhiY8YRZptXEem-49" style="rounded=0;orthogonalLoop=1;jettySize=auto;html=1;" parent="1" source="EgSJl7PhiY8YRZptXEem-43" target="EgSJl7PhiY8YRZptXEem-18" edge="1">
          <mxGeometry relative="1" as="geometry">
            <Array as="points">
              <mxPoint x="470" y="750" />
            </Array>
          </mxGeometry>
        </mxCell>
        <mxCell id="EgSJl7PhiY8YRZptXEem-50" value="Подтверждение платежа" style="text;html=1;align=center;verticalAlign=middle;resizable=0;points=[];autosize=1;" parent="1" vertex="1">
          <mxGeometry x="390" y="730" width="160" height="20" as="geometry" />
        </mxCell>
        <mxCell id="EgSJl7PhiY8YRZptXEem-51" style="edgeStyle=orthogonalEdgeStyle;curved=1;rounded=0;orthogonalLoop=1;jettySize=auto;html=1;entryX=1.2;entryY=0.765;entryDx=0;entryDy=0;entryPerimeter=0;" parent="1" edge="1">
          <mxGeometry relative="1" as="geometry">
            <mxPoint x="382" y="795.9200000000001" as="targetPoint" />
            <mxPoint x="380" y="759.9985714285715" as="sourcePoint" />
            <Array as="points">
              <mxPoint x="400" y="759.97" />
              <mxPoint x="400" y="795.97" />
            </Array>
          </mxGeometry>
        </mxCell>
        <mxCell id="EgSJl7PhiY8YRZptXEem-52" value="Учет платежа" style="text;html=1;align=center;verticalAlign=middle;resizable=0;points=[];autosize=1;" parent="1" vertex="1">
          <mxGeometry x="400" y="770" width="90" height="20" as="geometry" />
        </mxCell>
        <mxCell id="EgSJl7PhiY8YRZptXEem-53" style="edgeStyle=none;rounded=0;orthogonalLoop=1;jettySize=auto;html=1;entryX=1.043;entryY=0.928;entryDx=0;entryDy=0;entryPerimeter=0;" parent="1" source="EgSJl7PhiY8YRZptXEem-19" target="EgSJl7PhiY8YRZptXEem-23" edge="1">
          <mxGeometry relative="1" as="geometry" />
        </mxCell>
        <mxCell id="EgSJl7PhiY8YRZptXEem-54" value="Уведомление об успешном платеже" style="text;html=1;align=center;verticalAlign=middle;resizable=0;points=[];autosize=1;" parent="1" vertex="1">
          <mxGeometry x="150" y="790" width="220" height="20" as="geometry" />
        </mxCell>
        <mxCell id="EgSJl7PhiY8YRZptXEem-55" value="Оплата КУ" style="text;html=1;align=center;verticalAlign=middle;resizable=0;points=[];autosize=1;" parent="1" vertex="1">
          <mxGeometry x="340" y="440" width="80" height="20" as="geometry" />
        </mxCell>
        <mxCell id="EgSJl7PhiY8YRZptXEem-72" value="Система" style="shape=umlLifeline;perimeter=lifelinePerimeter;whiteSpace=wrap;html=1;container=1;collapsible=0;recursiveResize=0;outlineConnect=0;rounded=1;shadow=0;comic=0;labelBackgroundColor=none;strokeWidth=1;fontFamily=Verdana;fontSize=12;align=center;" parent="1" vertex="1">
          <mxGeometry x="780" y="70" width="100" height="360" as="geometry" />
        </mxCell>
        <mxCell id="EgSJl7PhiY8YRZptXEem-73" value="" style="html=1;points=[];perimeter=orthogonalPerimeter;rounded=0;shadow=0;comic=0;labelBackgroundColor=none;strokeWidth=1;fontFamily=Verdana;fontSize=12;align=center;" parent="EgSJl7PhiY8YRZptXEem-72" vertex="1">
          <mxGeometry x="45" y="100" width="10" height="230" as="geometry" />
        </mxCell>
        <mxCell id="EgSJl7PhiY8YRZptXEem-74" value="Администратор" style="shape=umlLifeline;perimeter=lifelinePerimeter;whiteSpace=wrap;html=1;container=1;collapsible=0;recursiveResize=0;outlineConnect=0;rounded=1;shadow=0;comic=0;labelBackgroundColor=none;strokeWidth=1;fontFamily=Verdana;fontSize=12;align=center;" parent="1" vertex="1">
          <mxGeometry x="940" y="70" width="100" height="360" as="geometry" />
        </mxCell>
        <mxCell id="EgSJl7PhiY8YRZptXEem-75" value="" style="html=1;points=[];perimeter=orthogonalPerimeter;rounded=0;shadow=0;comic=0;labelBackgroundColor=none;strokeWidth=1;fontFamily=Verdana;fontSize=12;align=center;" parent="EgSJl7PhiY8YRZptXEem-74" vertex="1">
          <mxGeometry x="45" y="120" width="10" height="200" as="geometry" />
        </mxCell>
        <mxCell id="EgSJl7PhiY8YRZptXEem-76" value="" style="html=1;points=[];perimeter=orthogonalPerimeter;rounded=0;shadow=0;comic=0;labelBackgroundColor=none;strokeWidth=1;fontFamily=Verdana;fontSize=12;align=center;" parent="1" vertex="1">
          <mxGeometry x="630" y="170" width="10" height="220" as="geometry" />
        </mxCell>
        <mxCell id="EgSJl7PhiY8YRZptXEem-85" style="edgeStyle=none;rounded=0;orthogonalLoop=1;jettySize=auto;html=1;" parent="1" source="EgSJl7PhiY8YRZptXEem-73" edge="1">
          <mxGeometry relative="1" as="geometry">
            <mxPoint x="639.9285714285713" y="340" as="targetPoint" />
            <Array as="points">
              <mxPoint x="730" y="340" />
              <mxPoint x="690" y="340" />
            </Array>
          </mxGeometry>
        </mxCell>
        <mxCell id="EgSJl7PhiY8YRZptXEem-86" value="Уведомление о решении" style="text;html=1;align=center;verticalAlign=middle;resizable=0;points=[];autosize=1;" parent="1" vertex="1">
          <mxGeometry x="645" y="310" width="160" height="20" as="geometry" />
        </mxCell>
        <mxCell id="EgSJl7PhiY8YRZptXEem-87" value="Заявка на обслуживание" style="text;html=1;align=center;verticalAlign=middle;resizable=0;points=[];autosize=1;" parent="1" vertex="1">
          <mxGeometry x="750" y="30" width="160" height="20" as="geometry" />
        </mxCell>
        <mxCell id="EgSJl7PhiY8YRZptXEem-88" value="Клиент" style="shape=umlLifeline;perimeter=lifelinePerimeter;whiteSpace=wrap;html=1;container=1;collapsible=0;recursiveResize=0;outlineConnect=0;rounded=1;shadow=0;comic=0;labelBackgroundColor=none;strokeWidth=1;fontFamily=Verdana;fontSize=12;align=center;" parent="1" vertex="1">
          <mxGeometry x="590" y="70" width="100" height="360" as="geometry" />
        </mxCell>
        <mxCell id="EgSJl7PhiY8YRZptXEem-89" value="" style="html=1;points=[];perimeter=orthogonalPerimeter;rounded=0;shadow=0;comic=0;labelBackgroundColor=none;strokeWidth=1;fontFamily=Verdana;fontSize=12;align=center;" parent="EgSJl7PhiY8YRZptXEem-88" vertex="1">
          <mxGeometry x="40" y="100" width="10" height="220" as="geometry" />
        </mxCell>
        <mxCell id="EgSJl7PhiY8YRZptXEem-90" style="edgeStyle=none;rounded=0;orthogonalLoop=1;jettySize=auto;html=1;" parent="1" source="EgSJl7PhiY8YRZptXEem-89" target="EgSJl7PhiY8YRZptXEem-72" edge="1">
          <mxGeometry relative="1" as="geometry">
            <Array as="points">
              <mxPoint x="730" y="180" />
            </Array>
          </mxGeometry>
        </mxCell>
        <mxCell id="EgSJl7PhiY8YRZptXEem-91" value="Авторизация" style="text;html=1;align=center;verticalAlign=middle;resizable=0;points=[];autosize=1;" parent="1" vertex="1">
          <mxGeometry x="690" y="160" width="90" height="20" as="geometry" />
        </mxCell>
        <mxCell id="EgSJl7PhiY8YRZptXEem-92" style="edgeStyle=none;rounded=0;orthogonalLoop=1;jettySize=auto;html=1;entryX=0.9;entryY=0.114;entryDx=0;entryDy=0;entryPerimeter=0;" parent="1" source="EgSJl7PhiY8YRZptXEem-73" target="EgSJl7PhiY8YRZptXEem-89" edge="1">
          <mxGeometry relative="1" as="geometry" />
        </mxCell>
        <mxCell id="EgSJl7PhiY8YRZptXEem-93" value="ЛК" style="text;html=1;align=center;verticalAlign=middle;resizable=0;points=[];autosize=1;" parent="1" vertex="1">
          <mxGeometry x="720" y="180" width="30" height="20" as="geometry" />
        </mxCell>
        <mxCell id="EgSJl7PhiY8YRZptXEem-94" style="edgeStyle=none;rounded=0;orthogonalLoop=1;jettySize=auto;html=1;" parent="1" source="EgSJl7PhiY8YRZptXEem-89" target="EgSJl7PhiY8YRZptXEem-72" edge="1">
          <mxGeometry relative="1" as="geometry">
            <Array as="points">
              <mxPoint x="730" y="220" />
            </Array>
          </mxGeometry>
        </mxCell>
        <mxCell id="EgSJl7PhiY8YRZptXEem-95" value="Создание заявки" style="text;html=1;align=center;verticalAlign=middle;resizable=0;points=[];autosize=1;" parent="1" vertex="1">
          <mxGeometry x="655" y="200" width="110" height="20" as="geometry" />
        </mxCell>
        <mxCell id="EgSJl7PhiY8YRZptXEem-96" style="edgeStyle=none;rounded=0;orthogonalLoop=1;jettySize=auto;html=1;" parent="1" source="EgSJl7PhiY8YRZptXEem-73" target="EgSJl7PhiY8YRZptXEem-74" edge="1">
          <mxGeometry relative="1" as="geometry">
            <mxPoint x="890" y="250" as="targetPoint" />
            <Array as="points">
              <mxPoint x="910" y="230" />
            </Array>
          </mxGeometry>
        </mxCell>
        <mxCell id="EgSJl7PhiY8YRZptXEem-97" value="Оповещение о заявке" style="text;html=1;align=center;verticalAlign=middle;resizable=0;points=[];autosize=1;" parent="1" vertex="1">
          <mxGeometry x="840" y="210" width="140" height="20" as="geometry" />
        </mxCell>
        <mxCell id="EgSJl7PhiY8YRZptXEem-98" style="edgeStyle=none;rounded=0;orthogonalLoop=1;jettySize=auto;html=1;" parent="1" source="EgSJl7PhiY8YRZptXEem-75" target="EgSJl7PhiY8YRZptXEem-72" edge="1">
          <mxGeometry relative="1" as="geometry">
            <Array as="points">
              <mxPoint x="910" y="260" />
              <mxPoint x="870" y="260" />
            </Array>
          </mxGeometry>
        </mxCell>
        <mxCell id="EgSJl7PhiY8YRZptXEem-99" value="Решение" style="text;html=1;align=center;verticalAlign=middle;resizable=0;points=[];autosize=1;" parent="1" vertex="1">
          <mxGeometry x="875" y="240" width="70" height="20" as="geometry" />
        </mxCell>
      </root>
    </mxGraphModel>
  </diagram>
</mxfile>
